# xmcd CD database file
#
# Track frame offsets:
#	150
#	24837
#	48600
#	77697
#	104377
#	133430
#	156975
#	177172
#	214260
#	241002
#	270350
#	297770
#
# Disc length: 4310 seconds
#
# Revision: 0
# Processed by: cddbd v1.5.1PL0 Copyright (c) Steve Scherf et al.
# Submitted via: CDex 1.51
#
DISCID=a310d40c
DTITLE=Omnibus - Rare Tracks - The Other Side Of Blue Note 4000 Series Disc4
DYEAR=1900
DGENRE=Jazz
TTITLE0=Three Coins In A Fountain
TTITLE1=Landslide
TTITLE2=They Can't Take That Away From Me
TTITLE3=Arietis [alt. take]
TTITLE4=Marie Antoinette [alt. take]
TTITLE5=Green's Greenery
TTITLE6=The Lion Roars
TTITLE7=Melody In C [alt. take]
TTITLE8=Blues For Ike
TTITLE9=Light Blue [alt. take]
TTITLE10=It's Alright With Me
TTITLE11=Tracin' Tracy
EXTD=
EXTT0=
EXTT1=
EXTT2=
EXTT3=
EXTT4=
EXTT5=
EXTT6=
EXTT7=
EXTT8=
EXTT9=
EXTT10=
EXTT11=
PLAYORDER=
